<svg width="99" height="121" viewBox="0 0 99 121" fill="none" xmlns="http://www.w3.org/2000/svg">
<circle cx="5.07042" cy="27.2113" r="5.07042" fill="#D81563"/>
<circle cx="27.2113" cy="27.2113" r="5.07042" fill="#D81563"/>
<circle cx="49.3522" cy="27.2113" r="5.07042" fill="#D81563"/>
<circle cx="71.493" cy="27.2113" r="5.07042" fill="#D81563"/>
<circle cx="93.6339" cy="27.2113" r="5.07042" fill="#D81563"/>
<circle cx="5.07042" cy="49.3522" r="5.07042" fill="#D81563"/>
<circle cx="27.2113" cy="49.3522" r="5.07042" fill="#D81563"/>
<circle cx="49.3522" cy="49.3522" r="5.07042" fill="#D81563"/>
<circle cx="71.493" cy="49.3522" r="5.07042" fill="#D81563"/>
<circle cx="93.6339" cy="49.3522" r="5.07042" fill="#D81563"/>
<circle cx="5.07042" cy="5.07042" r="5.07042" fill="#D81563"/>
<circle cx="27.2113" cy="5.07042" r="5.07042" fill="#D81563"/>
<circle cx="49.3522" cy="5.07042" r="5.07042" fill="#D81563"/>
<circle cx="71.493" cy="5.07042" r="5.07042" fill="#D81563"/>
<circle cx="93.6339" cy="5.07042" r="5.07042" fill="#D81563"/>
<circle cx="5.07042" cy="93.6339" r="5.07042" fill="#D81563"/>
<circle cx="27.2113" cy="93.6339" r="5.07042" fill="#D81563"/>
<circle cx="49.3522" cy="93.6339" r="5.07042" fill="#D81563"/>
<circle cx="71.493" cy="93.6339" r="5.07042" fill="#D81563"/>
<circle cx="93.6339" cy="93.6339" r="5.07042" fill="#D81563"/>
<circle cx="5.07042" cy="115.775" r="5.07042" fill="#D81563"/>
<circle cx="27.2113" cy="115.775" r="5.07042" fill="#D81563"/>
<circle cx="49.3522" cy="115.775" r="5.07042" fill="#D81563"/>
<circle cx="71.493" cy="115.775" r="5.07042" fill="#D81563"/>
<circle cx="93.6339" cy="115.775" r="5.07042" fill="#D81563"/>
<circle cx="5.07042" cy="71.493" r="5.07042" fill="#D81563"/>
<circle cx="27.2113" cy="71.493" r="5.07042" fill="#D81563"/>
<circle cx="49.3522" cy="71.493" r="5.07042" fill="#D81563"/>
<circle cx="71.493" cy="71.493" r="5.07042" fill="#D81563"/>
<circle cx="93.6339" cy="71.493" r="5.07042" fill="#D81563"/>
</svg>
