<svg width="229" height="69" viewBox="0 0 229 69" fill="none" xmlns="http://www.w3.org/2000/svg">
<g clip-path="url(#clip0_73_1137)">
<path d="M142.036 53.9049C128.744 63.6852 109.478 68.9034 92.8912 68.9034C69.6332 68.9034 48.6951 60.3158 32.8546 46.0329C31.6101 44.9098 32.7252 43.3791 34.2186 44.2538C51.3136 54.1832 72.4509 60.1568 94.2851 60.1568C109.01 60.1568 125.209 57.1153 140.104 50.8038C142.354 49.8496 144.236 52.2748 142.036 53.9049Z" fill="#FF9900"/>
<path d="M147.561 47.5935C145.869 45.4268 136.331 46.5698 132.05 47.0767C130.745 47.2357 130.546 46.1027 131.721 45.2876C139.318 39.9502 151.783 41.4908 153.237 43.2799C154.69 45.0789 152.858 57.5528 145.72 63.5064C144.624 64.4209 143.579 63.9339 144.067 62.7212C145.67 58.7256 149.264 49.7703 147.561 47.5935Z" fill="#FF9900"/>
<path d="M132.348 7.60751V2.41917C132.348 1.63396 132.946 1.10718 133.662 1.10718H156.93C157.677 1.10718 158.274 1.6439 158.274 2.41917V6.86206C158.264 7.60751 157.637 8.58157 156.522 10.1222L144.465 27.3073C148.945 27.198 153.675 27.8639 157.737 30.15C158.653 30.6668 158.902 31.4222 158.971 32.1677V37.7039C158.971 38.4593 158.135 39.3439 157.259 38.8867C150.1 35.1395 140.592 34.732 132.677 38.9264C131.87 39.3637 131.024 38.4891 131.024 37.7337V32.4758C131.024 31.6309 131.034 30.1897 131.88 28.9075L145.849 8.90957H133.692C132.945 8.90957 132.348 8.38279 132.348 7.60751Z" fill="#221F1F"/>
<path d="M47.4706 39.9799H40.3916C39.7146 39.9302 39.177 39.4233 39.1272 38.7772V2.50855C39.1272 1.78298 39.7345 1.20649 40.4912 1.20649H47.0922C47.7792 1.23629 48.3268 1.7631 48.3766 2.41909V7.16017H48.5061C50.2285 2.57812 53.4643 0.441162 57.8252 0.441162C62.2557 0.441162 65.0236 2.57812 67.0148 7.16017C68.7273 2.57812 72.6202 0.441162 76.7919 0.441162C79.7589 0.441162 83.0047 1.6637 84.986 4.40696C87.2261 7.45834 86.7682 11.8913 86.7682 15.7776L86.7582 38.6679C86.7582 39.3935 86.1509 39.9799 85.3942 39.9799H78.3252C77.6183 39.9302 77.0508 39.3637 77.0508 38.6679V19.4452C77.0508 17.9145 77.1902 14.0978 76.8517 12.6467C76.324 10.2116 74.7409 9.52573 72.6899 9.52573C70.9774 9.52573 69.1853 10.6688 68.4585 12.4976C67.7317 14.3264 67.8014 17.3878 67.8014 19.4452V38.6679C67.8014 39.3935 67.194 39.9799 66.4374 39.9799H59.3684C58.6515 39.9302 58.094 39.3637 58.094 38.6679L58.084 19.4452C58.084 15.3999 58.7511 9.44621 53.7232 9.44621C48.6355 9.44621 48.8346 15.2508 48.8346 19.4452V38.6679C48.8346 39.3935 48.2273 39.9799 47.4706 39.9799Z" fill="#221F1F"/>
<path d="M178.307 0.441162C188.81 0.441162 194.496 9.44622 194.496 20.8964C194.496 31.9589 188.213 40.7353 178.307 40.7353C167.992 40.7353 162.376 31.7302 162.376 20.5087C162.376 9.21761 168.062 0.441162 178.307 0.441162ZM178.366 7.84598C173.149 7.84598 172.821 14.9427 172.821 19.3657C172.821 23.7986 172.751 33.2609 178.307 33.2609C183.793 33.2609 184.051 25.6275 184.051 20.9759C184.051 17.9145 183.922 14.2569 182.996 11.3546C182.199 8.82998 180.616 7.84598 178.366 7.84598Z" fill="#221F1F"/>
<path d="M208.116 39.9799H201.067C200.36 39.9302 199.792 39.3637 199.792 38.6679L199.782 2.38927C199.842 1.72334 200.429 1.20649 201.146 1.20649H207.707C208.325 1.23629 208.833 1.65376 208.972 2.22031V7.76646H209.101C211.083 2.80673 213.86 0.441162 218.749 0.441162C221.925 0.441162 225.021 1.58419 227.013 4.71508C228.865 7.61737 228.865 12.4976 228.865 16.0062V38.8369C228.785 39.473 228.198 39.9799 227.501 39.9799H220.402C219.755 39.9302 219.217 39.4531 219.147 38.8369V19.1371C219.147 15.1713 219.605 9.3667 214.717 9.3667C212.994 9.3667 211.411 10.5197 210.625 12.269C209.629 14.4855 209.5 16.692 209.5 19.1371V38.6679C209.49 39.3935 208.872 39.9799 208.116 39.9799Z" fill="#221F1F"/>
<path d="M113.799 22.6556V21.1249C108.682 21.1249 103.276 22.2183 103.276 28.2415C103.276 31.2929 104.859 33.3603 107.577 33.3603C109.568 33.3603 111.35 32.1377 112.475 30.1499C113.869 27.7048 113.799 25.4088 113.799 22.6556ZM120.938 39.8805C120.47 40.2979 119.793 40.3278 119.265 40.0495C116.916 38.1014 116.498 37.1969 115.203 35.3382C111.32 39.2941 108.572 40.4769 103.534 40.4769C97.5806 40.4769 92.9409 36.8092 92.9409 29.4641C92.9409 23.729 96.0572 19.8229 100.488 17.9145C104.331 16.2248 109.697 15.9267 113.799 15.4595V14.5451C113.799 12.8653 113.929 10.8775 112.943 9.42632C112.077 8.12426 110.424 7.58753 108.971 7.58753C106.272 7.58753 103.863 8.9691 103.276 11.8316C103.156 12.4678 102.688 13.0939 102.051 13.1238L95.1811 12.3882C94.6036 12.259 93.9664 11.7919 94.1257 10.9073C95.7088 2.59799 103.226 0.0932617 109.956 0.0932617C113.401 0.0932617 117.901 1.00768 120.619 3.61179C124.064 6.8222 123.736 11.1061 123.736 15.7676V26.7804C123.736 30.0902 125.11 31.5414 126.404 33.3305C126.862 33.9666 126.962 34.7319 126.384 35.209C124.941 36.4117 122.372 38.648 120.958 39.9004L120.938 39.8805" fill="#221F1F"/>
<path d="M20.9967 22.6556V21.1249C15.8791 21.1249 10.4728 22.2183 10.4728 28.2415C10.4728 31.2929 12.0559 33.3603 14.774 33.3603C16.7652 33.3603 18.5474 32.1377 19.6725 30.1499C21.0663 27.7048 20.9967 25.4088 20.9967 22.6556ZM28.1353 39.8805C27.6674 40.2979 26.9904 40.3278 26.4627 40.0495C24.113 38.1014 23.6948 37.1969 22.4005 35.3382C18.5175 39.2941 15.7696 40.4769 10.7317 40.4769C4.77782 40.4769 0.138184 36.8092 0.138184 29.4641C0.138184 23.729 3.25451 19.8229 7.68507 17.9145C11.5282 16.2248 16.8947 15.9267 20.9967 15.4595V14.5451C20.9967 12.8653 21.1261 10.8775 20.1404 9.42632C19.2742 8.12426 17.6215 7.58753 16.1678 7.58753C13.4697 7.58753 11.0603 8.9691 10.4728 11.8316C10.3534 12.4678 9.88541 13.0939 9.24821 13.1238L2.37835 12.3882C1.80089 12.259 1.16368 11.7919 1.32298 10.9073C2.90604 2.59799 10.4231 0.0932617 17.1535 0.0932617C20.5984 0.0932617 25.0987 1.00768 27.8167 3.61179C31.2616 6.8222 30.9331 11.1061 30.9331 15.7676V26.7804C30.9331 30.0902 32.307 31.5414 33.6014 33.3305C34.0593 33.9666 34.1589 34.7319 33.5814 35.209C32.1378 36.4117 29.569 38.648 28.1552 39.9004L28.1353 39.8805" fill="#221F1F"/>
</g>
<defs>
<clipPath id="clip0_73_1137">
<rect width="229" height="69" fill="white"/>
</clipPath>
</defs>
</svg>
