<svg width="120" height="103" viewBox="0 0 120 103" fill="none" xmlns="http://www.w3.org/2000/svg">
<path d="M0.0253264 74.5523C0.0253264 90.2132 12.7203 102.908 28.381 102.908C44.042 102.908 56.737 90.2132 56.737 74.5523C56.737 58.8913 44.042 46.1966 28.381 46.1966C25.1625 46.1966 22.0816 46.7576 19.1974 47.7464C25.5787 11.1482 54.1182 -12.4534 27.6622 6.97121C-1.67362 28.511 -0.00609214 73.6857 0.0267332 74.5136C0.0267332 74.5265 0.0253264 74.538 0.0253264 74.5523Z" fill="#D81563" fill-opacity="0.3"/>
<path d="M62.4077 74.5523C62.4077 90.2132 75.1027 102.908 90.7637 102.908C106.425 102.908 119.12 90.2132 119.12 74.5523C119.12 58.8913 106.424 46.1966 90.7634 46.1966C87.5447 46.1966 84.464 46.7576 81.5798 47.7464C87.9611 11.1482 116.501 -12.4534 90.0445 6.97121C60.7088 28.511 62.3761 73.6857 62.4091 74.5136C62.4091 74.5265 62.4077 74.538 62.4077 74.5523Z" fill="#D81563" fill-opacity="0.3"/>
</svg>
