<svg width="57" height="61" viewBox="0 0 57 61" fill="none" xmlns="http://www.w3.org/2000/svg">
<path d="M36.981 19.1695C31.1256 10.555 23.305 5.9765 19.2095 8.78183C18.7585 9.09942 18.3667 9.49353 18.0517 9.94631C18.0517 9.97939 8.57042 29.1668 8.57042 29.1668L3.27733 32.7529C2.46477 33.3045 1.76884 34.0108 1.2293 34.8314C0.689766 35.652 0.317192 36.5709 0.132865 37.5355C-0.0514613 38.5002 -0.0439291 39.4917 0.155032 40.4534C0.353993 41.4151 0.740484 42.3282 1.29243 43.1406L1.53061 43.4912C2.64627 45.1164 4.35766 46.2362 6.29359 46.6078C8.22953 46.9794 10.2339 46.5728 11.872 45.4761L20.374 58.0009C21.6245 59.5425 24.0262 61.0775 26.9903 59.2712C27.5155 58.9307 27.9634 58.484 28.3053 57.9598C28.6471 57.4356 28.8754 56.8455 28.9753 56.2277C29.095 55.6132 29.0918 54.981 28.9657 54.3678C28.8396 53.7545 28.5933 53.1723 28.2408 52.6549L20.7511 41.6056C20.7511 41.6056 38.4565 40.1963 38.5227 40.1698C39.0755 40.0541 39.5996 39.8292 40.0643 39.5082C42.1683 38.0791 42.9225 35.0818 42.1947 31.0657C41.5397 27.3672 39.6805 23.179 36.981 19.1695ZM3.45597 42.1878L3.21778 41.8371C2.83697 41.2765 2.57047 40.6463 2.43353 39.9825C2.29658 39.3188 2.29189 38.6345 2.41972 37.969C2.54755 37.3034 2.80539 36.6696 3.17848 36.1038C3.55157 35.538 4.03258 35.0513 4.59399 34.6716L9.16589 31.5619L15.2 40.4477L10.6281 43.5574C10.0673 43.9387 9.43694 44.2057 8.77292 44.3433C8.1089 44.4808 7.42428 44.4861 6.7582 44.359C6.09213 44.2318 5.45764 43.9745 4.89103 43.602C4.32441 43.2295 3.83677 42.7489 3.45597 42.1878ZM26.3353 53.9583C26.6969 54.4964 26.8304 55.1559 26.7063 55.7922C26.5823 56.4285 26.2109 56.9896 25.6737 57.3525C25.1346 57.7145 24.474 57.8481 23.8366 57.724C23.1993 57.6 22.637 57.2285 22.2729 56.6909L13.7973 44.2058L17.2048 41.8901L18.1046 41.8173L26.3353 53.9583ZM17.39 39.5479L10.8134 29.8615L17.0857 17.0721C17.6944 20.6648 19.4742 24.9324 22.3192 29.1205C25.1642 33.3087 28.4724 36.5374 31.5821 38.4297L17.39 39.5479ZM36.9083 38.0063C33.7456 37.8012 28.5981 34.2349 24.2379 27.8105C19.8778 21.386 18.4619 15.3056 19.4345 12.2819C19.6101 11.7143 19.9606 11.2168 20.4359 10.8603C20.9112 10.5038 21.487 10.3067 22.081 10.297C25.2172 10.297 30.5566 13.883 35.0425 20.4928C37.5699 24.2112 39.4092 28.1016 39.9121 31.5024C40.8979 38.0063 36.9083 38.0063 36.9083 38.0063Z" fill="#D81563"/>
<path d="M28.7107 19.4143C27.9002 19.2551 27.0662 19.2592 26.2573 19.4262C25.4484 19.5932 24.681 19.9198 23.9998 20.3869C23.8743 20.4738 23.7671 20.5845 23.6843 20.7129C23.6016 20.8412 23.5449 20.9845 23.5176 21.1348C23.4902 21.285 23.4927 21.4391 23.525 21.5884C23.5572 21.7376 23.6185 21.879 23.7054 22.0046C23.7923 22.1301 23.903 22.2374 24.0314 22.3201C24.1597 22.4028 24.303 22.4595 24.4533 22.4868C24.6035 22.5142 24.7576 22.5117 24.9069 22.4794C25.0561 22.4472 25.1975 22.3859 25.3231 22.299C25.7545 22.0062 26.2393 21.8012 26.7499 21.6958C27.2606 21.5904 27.7869 21.5865 28.299 21.6845C28.8111 21.7825 29.2989 21.9804 29.7345 22.2669C30.1701 22.5534 30.545 22.9229 30.8378 23.3543C31.1306 23.7857 31.3356 24.2706 31.441 24.7812C31.5465 25.2918 31.5503 25.8182 31.4523 26.3303C31.3543 26.8423 31.1564 27.3301 30.8699 27.7657C30.5834 28.2013 30.2139 28.5762 29.7825 28.8691C29.5791 29.0095 29.426 29.2114 29.3456 29.4452C29.2652 29.6789 29.2617 29.9323 29.3356 30.1682C29.4096 30.4041 29.5571 30.6101 29.7565 30.7561C29.956 30.9021 30.197 30.9805 30.4442 30.9797C30.68 30.9841 30.9113 30.9147 31.1058 30.7812C32.1349 30.0841 32.9339 29.0972 33.4017 27.9456C33.8694 26.7939 33.9848 25.5294 33.7333 24.3121C33.4818 23.0948 32.8746 21.9796 31.9887 21.1077C31.1028 20.2358 29.9781 19.6464 28.757 19.4143H28.7107Z" fill="#D81563"/>
<path d="M38.4103 11.1174H38.5228C38.8092 11.1173 39.0854 11.0111 39.298 10.8192C39.5106 10.6274 39.6446 10.3635 39.674 10.0787L40.5673 1.398C40.5876 1.2445 40.5769 1.08849 40.5359 0.939184C40.4949 0.789881 40.4243 0.650325 40.3284 0.528771C40.2325 0.407217 40.1132 0.306135 39.9775 0.231505C39.8418 0.156875 39.6926 0.110214 39.5386 0.094281C39.3845 0.0783484 39.2289 0.0934685 39.0808 0.138747C38.9328 0.184025 38.7953 0.258541 38.6765 0.357887C38.5577 0.457233 38.4601 0.579391 38.3894 0.717132C38.3187 0.854874 38.2763 1.0054 38.2648 1.15981L37.3782 9.84708C37.3467 10.1524 37.4378 10.4577 37.6313 10.6959C37.8248 10.9341 38.105 11.0857 38.4103 11.1174Z" fill="#D81563"/>
<path d="M53.3763 9.33094C53.2063 9.07467 52.9418 8.89606 52.6406 8.83408C52.3394 8.7721 52.0259 8.83179 51.7685 9.00012L43.7032 14.2932C43.4938 14.4315 43.335 14.6341 43.2506 14.8705C43.1663 15.1068 43.1611 15.3642 43.2357 15.6038C43.3104 15.8434 43.4609 16.0523 43.6645 16.199C43.8682 16.3456 44.1139 16.4222 44.3648 16.4171C44.5989 16.4224 44.8293 16.3579 45.0265 16.2318L53.0918 10.9387C53.342 10.7627 53.5124 10.4948 53.5657 10.1935C53.619 9.89226 53.5509 9.58215 53.3763 9.33094Z" fill="#D81563"/>
<path d="M55.8444 23.4635L46.4624 21.7763C46.1597 21.7219 45.8478 21.79 45.5953 21.9656C45.3428 22.1412 45.1703 22.4099 45.1159 22.7126C45.0615 23.0153 45.1296 23.3272 45.3052 23.5797C45.4808 23.8322 45.7495 24.0046 46.0522 24.059L55.4275 25.7462H55.6326C55.9277 25.7548 56.2148 25.6504 56.4355 25.4544C56.6561 25.2584 56.7936 24.9855 56.8198 24.6915C56.846 24.3975 56.7589 24.1047 56.5764 23.8727C56.3938 23.6408 56.1296 23.4873 55.8377 23.4437L55.8444 23.4635Z" fill="#D81563"/>
</svg>
