<svg width="64" height="59" viewBox="0 0 64 59" fill="none" xmlns="http://www.w3.org/2000/svg">
<path d="M29.1546 8.34155H14.561" stroke="#D81563" stroke-width="2.2" stroke-miterlimit="10" stroke-linecap="round" stroke-linejoin="round"/>
<path d="M49.6017 8.34155H35.0083" stroke="#D81563" stroke-width="2.2" stroke-miterlimit="10" stroke-linecap="round" stroke-linejoin="round"/>
<path d="M8.58537 8.00012H5.90244C3.7472 8.00012 2 9.59563 2 11.5638V53.4365C2 55.4046 3.7472 57.0001 5.90244 57.0001H58.0976C60.2528 57.0001 62 55.4046 62 53.4365V11.5638C62 9.59563 60.2528 8.00012 58.0976 8.00012H55.6585" stroke="#D81563" stroke-width="2.2" stroke-miterlimit="10" stroke-linecap="round" stroke-linejoin="round"/>
<path d="M37.4878 22.9757H62" stroke="#D81563" stroke-width="2.2" stroke-miterlimit="10" stroke-linecap="round" stroke-linejoin="round"/>
<path d="M2 22.9757H26.5122" stroke="#D81563" stroke-width="2.2" stroke-miterlimit="10" stroke-linecap="round" stroke-linejoin="round"/>
<path d="M11.262 14.1952C9.78374 14.1952 8.58545 12.9969 8.58545 11.5186V4.67665C8.58545 3.19836 9.78374 2.00007 11.262 2.00007C12.7403 2.00007 13.9386 3.19836 13.9386 4.67665V11.5186C13.9386 12.9969 12.7403 14.1952 11.262 14.1952Z" stroke="#D81563" stroke-width="2.2" stroke-miterlimit="10" stroke-linecap="round" stroke-linejoin="round"/>
<path d="M52.7381 14.1952C51.2598 14.1952 50.0615 12.9969 50.0615 11.5186V4.67665C50.0615 3.19836 51.2598 2.00007 52.7381 2.00007C54.2164 2.00007 55.4147 3.19836 55.4147 4.67665V11.5186C55.4147 12.9969 54.2164 14.1952 52.7381 14.1952Z" stroke="#D81563" stroke-width="2.2" stroke-miterlimit="10" stroke-linecap="round" stroke-linejoin="round"/>
<path d="M32.0155 14.1952C30.5372 14.1952 29.3389 12.9969 29.3389 11.5186V4.67665C29.3389 3.19836 30.5372 2.00007 32.0155 2.00007C33.4937 2.00007 34.692 3.19836 34.692 4.67665V11.5186C34.692 12.9969 33.4937 14.1952 32.0155 14.1952Z" stroke="#D81563" stroke-width="2.2" stroke-miterlimit="10" stroke-linecap="round" stroke-linejoin="round"/>
<path d="M2 22.9757V53.2196C2 55.3749 3.7472 57.1221 5.90244 57.1221H58.0976C60.2528 57.1221 62 55.3749 62 53.2196V22.9757" stroke="#D81563" stroke-width="2.2" stroke-miterlimit="10" stroke-linecap="round" stroke-linejoin="round"/>
<path d="M33.4222 30.4378L35.7973 35.2503L41.1083 36.022C42.4041 36.2103 42.9216 37.8029 41.9839 38.7169L38.1408 42.4629L39.048 47.7524C39.2694 49.0431 37.9147 50.0273 36.7557 49.4179L32.0055 46.9206L27.2551 49.4179C26.0961 50.0273 24.7414 49.0431 24.9628 47.7524L25.87 42.4629L22.0269 38.7169C21.0892 37.8029 21.6067 36.2103 22.9025 36.022L28.2135 35.2503L30.5886 30.4378C31.1681 29.2635 32.8427 29.2635 33.4222 30.4378Z" stroke="#D81563" stroke-width="2.2" stroke-miterlimit="10" stroke-linecap="round" stroke-linejoin="round"/>
</svg>
