<svg width="60" height="50" viewBox="0 0 60 50" fill="none" xmlns="http://www.w3.org/2000/svg">
<path d="M26.4483 0.112471C25.9529 -0.104603 25.3683 -0.00207438 24.9728 0.373522L10.9291 13.637H1.36368C0.609928 13.637 0 14.2469 0 15.0005V34.0914C0 34.8451 0.609928 35.4551 1.36368 35.4551H10.9291L24.9729 48.7185C25.2313 48.9636 25.5681 49.0915 25.9091 49.0915C26.0915 49.0915 26.2754 49.0555 26.4485 48.9796C26.9492 48.7652 27.2728 48.2725 27.2728 47.7278V1.36429C27.2726 0.819558 26.9491 0.32686 26.4483 0.112471ZM24.5454 44.5637L12.4072 33.1006C12.1542 32.8609 11.8186 32.7277 11.471 32.7277H2.72723V16.3641H11.471C11.8186 16.3641 12.1542 16.2309 12.4072 15.9912L24.5454 4.52835V44.5637Z" fill="#D81563"/>
<path d="M47.565 0.260232C46.9497 -0.183248 46.0988 -0.0446685 45.6607 0.563853C45.2186 1.17378 45.3544 2.0261 45.9643 2.46817C53.0461 7.59778 57.2728 15.8516 57.2728 24.546C57.2728 33.2405 53.046 41.4942 45.9643 46.6238C45.3544 47.0659 45.2186 47.9182 45.6607 48.5282C45.9269 48.8957 46.3438 49.0914 46.766 49.0914C47.043 49.0914 47.3226 49.0076 47.565 48.8318C55.3512 43.1908 60.0002 34.1114 60.0002 24.546C60 14.9806 55.3512 5.9012 47.565 0.260232Z" fill="#D81563"/>
<path d="M40.1432 8.39141C39.5106 7.99191 38.665 8.18239 38.2629 8.82019C37.8621 9.45671 38.0539 10.2984 38.6917 10.7005C43.4951 13.7234 46.3634 18.8995 46.3634 24.5459C46.3634 30.1922 43.4949 35.3684 38.6917 38.3913C38.0538 38.7935 37.862 39.635 38.2629 40.2716C38.5226 40.6844 38.966 40.9095 39.4189 40.9095C39.6666 40.9095 39.9182 40.8416 40.1433 40.7005C45.7456 37.1742 49.0908 31.1365 49.0908 24.546C49.0908 17.9556 45.7456 11.9178 40.1432 8.39141Z" fill="#D81563"/>
<path d="M34.8687 17.9982C34.2642 17.5468 33.4106 17.6746 32.9605 18.2765C32.5103 18.8811 32.6355 19.7361 33.2388 20.1848C34.6477 21.2341 35.4546 22.8228 35.4546 24.5461C35.4546 26.2692 34.6476 27.8579 33.2388 28.9074C32.6355 29.3561 32.5103 30.2111 32.9605 30.8156C33.2282 31.1753 33.6383 31.3643 34.0552 31.3643C34.3374 31.3643 34.6238 31.2764 34.8689 31.0939C36.9743 29.5266 38.1821 27.1389 38.1821 24.5461C38.1821 21.9532 36.9741 19.5657 34.8687 17.9982Z" fill="#D81563"/>
</svg>
