<svg width="62" height="62" viewBox="0 0 62 62" fill="none" xmlns="http://www.w3.org/2000/svg">
<path d="M54.8118 12.7493C58.6931 17.8055 61 24.1334 61 31C61 47.5685 47.5685 61 31 61C24.151 61 17.8381 58.7049 12.7883 54.8417" stroke="#D81563" stroke-width="2" stroke-miterlimit="10" stroke-linecap="round" stroke-linejoin="round"/>
<path d="M13.7207 6.47312C18.6056 3.02531 24.5663 1.00007 31.0001 1.00007C37.8696 1.00007 44.1998 3.30897 49.257 7.19312" stroke="#D81563" stroke-width="2" stroke-miterlimit="10" stroke-linecap="round" stroke-linejoin="round"/>
<path d="M7.14792 49.1981C3.29097 44.1507 1 37.8429 1 31C1 24.8136 2.87244 19.0647 6.08146 14.289" stroke="#D81563" stroke-width="2" stroke-miterlimit="10" stroke-linecap="round" stroke-linejoin="round"/>
<path d="M39.8639 44.9025C38.1929 54.4712 34.8507 61 31.0002 61C25.4773 61 21.0002 47.5685 21.0002 31C21.0002 28.9116 21.0713 26.8731 21.2067 24.9049" stroke="#D81563" stroke-width="2" stroke-miterlimit="10" stroke-linecap="round" stroke-linejoin="round"/>
<path d="M22.1272 17.1504C23.7951 7.5528 27.1426 1 31.0001 1C36.5229 1 41.0001 14.4315 41.0001 31C41.0001 33.0892 40.9289 35.1288 40.7934 37.0977" stroke="#D81563" stroke-width="2" stroke-miterlimit="10" stroke-linecap="round" stroke-linejoin="round"/>
<path d="M3.1543 41.0001H36.5277" stroke="#D81563" stroke-width="2" stroke-miterlimit="10" stroke-linecap="round" stroke-linejoin="round"/>
<path d="M25.9189 21.0001H58.8458" stroke="#D81563" stroke-width="2" stroke-miterlimit="10" stroke-linecap="round" stroke-linejoin="round"/>
<path d="M3.1543 21.0001H17.5847" stroke="#D81563" stroke-width="2" stroke-miterlimit="10" stroke-linecap="round" stroke-linejoin="round"/>
<path d="M44.3327 41C44.3327 38.8448 42.5855 37.0976 40.4303 37.0976C38.275 37.0976 36.5278 38.8448 36.5278 41C36.5278 43.1553 38.275 44.9025 40.4303 44.9025C42.5855 44.9025 44.3327 43.1553 44.3327 41Z" stroke="#D81563" stroke-width="2" stroke-miterlimit="10" stroke-linecap="round" stroke-linejoin="round"/>
<path d="M25.3896 21.0002C25.3896 18.8449 23.6424 17.0977 21.4872 17.0977C19.3319 17.0977 17.5847 18.8449 17.5847 21.0002C17.5847 23.1554 19.3319 24.9026 21.4872 24.9026C23.6424 24.9026 25.3896 23.1554 25.3896 21.0002Z" stroke="#D81563" stroke-width="2" stroke-miterlimit="10" stroke-linecap="round" stroke-linejoin="round"/>
<path d="M56.1225 9.78055C56.1225 7.6253 54.3753 5.87811 52.2201 5.87811C50.0648 5.87811 48.3176 7.6253 48.3176 9.78055C48.3176 11.9358 50.0648 13.683 52.2201 13.683C54.3753 13.683 56.1225 11.9358 56.1225 9.78055Z" stroke="#D81563" stroke-width="2" stroke-miterlimit="10" stroke-linecap="round" stroke-linejoin="round"/>
<path d="M13.6828 52.2194C13.6828 50.0641 11.9356 48.317 9.78037 48.317C7.62512 48.317 5.87793 50.0641 5.87793 52.2194C5.87793 54.3746 7.62512 56.1218 9.78037 56.1218C11.9356 56.1218 13.6828 54.3746 13.6828 52.2194Z" stroke="#D81563" stroke-width="2" stroke-miterlimit="10" stroke-linecap="round" stroke-linejoin="round"/>
<path d="M44.3328 41.0001H58.8454" stroke="#D81563" stroke-width="2" stroke-miterlimit="10" stroke-linecap="round" stroke-linejoin="round"/>
</svg>
