<svg width="62" height="53" viewBox="0 0 62 53" fill="none" xmlns="http://www.w3.org/2000/svg">
<path d="M55.5453 22.8439C54.4007 22.8416 53.2844 23.1994 52.3544 23.8666L45.9999 28.3803V26.9348C45.9999 25.1265 45.2816 23.3923 44.0029 22.1136C42.7243 20.835 40.99 20.1166 39.1817 20.1166H38.8681C40.5377 18.6547 41.7218 16.7184 42.2623 14.566C42.8028 12.4137 42.674 10.1477 41.8931 8.07039C41.1122 5.99313 39.7164 4.20342 37.8919 2.94012C36.0674 1.67681 33.9009 1 31.6818 1C29.4626 1 27.2961 1.67681 25.4716 2.94012C23.6471 4.20342 22.2513 5.99313 21.4704 8.07039C20.6895 10.1477 20.5607 12.4137 21.1012 14.566C21.6417 16.7184 22.8258 18.6547 24.4954 20.1166H17.9909C19.0572 18.9292 19.753 17.4559 19.9926 15.878C20.2321 14.3001 20.005 12.6867 19.3391 11.2363C18.6732 9.78585 17.5977 8.56186 16.245 7.71499C14.8923 6.86813 13.3214 6.43538 11.7258 6.47002C10.1303 6.50467 8.57966 7.0052 7.26498 7.90999C5.95029 8.81477 4.92891 10.0843 4.32663 11.5622C3.72435 13.0402 3.56747 14.662 3.87529 16.228C4.18311 17.794 4.9422 19.2357 6.05908 20.3757C4.61269 20.762 3.33362 21.6135 2.41929 22.7989C1.50497 23.9843 1.00621 25.4377 1 26.9348V46.0257C1 47.834 1.71834 49.5682 2.99699 50.8468C4.27565 52.1255 6.00988 52.8438 7.81817 52.8438H39.1817C40.99 52.8438 42.7243 52.1255 44.0029 50.8468C45.2816 49.5682 45.9999 47.834 45.9999 46.0257V44.5802L52.3135 49.0938C53.1286 49.6934 54.0945 50.0544 55.103 50.1365C56.1116 50.2186 57.1231 50.0185 58.0244 49.5586C58.9257 49.0988 59.6814 48.3972 60.2069 47.5325C60.7323 46.6678 61.0069 45.6739 60.9999 44.662V28.2984C60.9999 26.8518 60.4252 25.4644 59.4023 24.4415C58.3793 23.4186 56.992 22.8439 55.5453 22.8439ZM23.5 11.9348C23.5 10.3166 23.9798 8.73476 24.8788 7.38927C25.7779 6.04378 27.0557 4.9951 28.5507 4.37584C30.0457 3.75657 31.6908 3.59455 33.2779 3.91024C34.8651 4.22594 36.3229 5.00518 37.4672 6.14943C38.6114 7.29367 39.3906 8.75153 39.7063 10.3386C40.022 11.9258 39.86 13.5708 39.2407 15.0659C38.6215 16.5609 37.5728 17.8387 36.2273 18.7378C34.8818 19.6368 33.3 20.1166 31.6818 20.1166C29.5118 20.1166 27.4307 19.2546 25.8963 17.7202C24.362 16.1859 23.5 14.1048 23.5 11.9348ZM11.9091 9.20757C12.9879 9.20757 14.0424 9.52747 14.9394 10.1268C15.8364 10.7262 16.5356 11.5781 16.9484 12.5747C17.3612 13.5714 17.4693 14.6682 17.2588 15.7262C17.0483 16.7843 16.5288 17.7562 15.766 18.519C15.0032 19.2819 14.0313 19.8014 12.9732 20.0118C11.9151 20.2223 10.8184 20.1143 9.82171 19.7014C8.82502 19.2886 7.97314 18.5895 7.37379 17.6925C6.77444 16.7955 6.45453 15.7409 6.45453 14.6621C6.45453 13.2155 7.02921 11.8281 8.05213 10.8052C9.07505 9.78224 10.4624 9.20757 11.9091 9.20757ZM43.2726 46.0257C43.2726 47.1106 42.8416 48.1512 42.0744 48.9184C41.3072 49.6856 40.2667 50.1166 39.1817 50.1166H7.81817C6.73319 50.1166 5.69266 49.6856 4.92546 48.9184C4.15827 48.1512 3.72727 47.1106 3.72727 46.0257V26.9348C3.72727 25.8498 4.15827 24.8093 4.92546 24.0421C5.69266 23.2749 6.73319 22.8439 7.81817 22.8439H39.1817C40.2667 22.8439 41.3072 23.2749 42.0744 24.0421C42.8416 24.8093 43.2726 25.8498 43.2726 26.9348V46.0257ZM58.2726 44.662C58.2876 45.1766 58.1566 45.6849 57.8948 46.1282C57.633 46.5715 57.2512 46.9316 56.7933 47.167C56.3354 47.4023 55.8203 47.5033 55.3075 47.4582C54.7947 47.4131 54.3051 47.2237 53.8953 46.912L45.9999 41.2393V31.6939L53.8953 26.0621C54.3042 25.7512 54.7924 25.5621 55.304 25.5165C55.8155 25.4709 56.3296 25.5707 56.7869 25.8043C57.2443 26.038 57.6264 26.3961 57.8892 26.8373C58.152 27.2785 58.2849 27.785 58.2726 28.2984V44.662Z" fill="#D81563" stroke="white" stroke-width="0.2"/>
</svg>
